<svg xmlns="http://www.w3.org/2000/svg" viewBox="0 0 480 680" role="img" aria-labelledby="title desc">
  <title id="title">Galgorat Library cover</title>
  <desc id="desc">Ancient brown book cover with gold frame and a red map mark.</desc>
  <defs>
    <linearGradient id="leather" x1="0" x2="1" y1="0" y2="1">
      <stop offset="0" stop-color="#5b2d20"/>
      <stop offset="0.46" stop-color="#2f2019"/>
      <stop offset="1" stop-color="#7c4d2c"/>
    </linearGradient>
    <radialGradient id="glow" cx="48%" cy="38%" r="62%">
      <stop offset="0" stop-color="#f2d28a" stop-opacity="0.5"/>
      <stop offset="0.52" stop-color="#9a6635" stop-opacity="0.18"/>
      <stop offset="1" stop-color="#140f0c" stop-opacity="0.46"/>
    </radialGradient>
  </defs>
  <rect width="480" height="680" rx="22" fill="#1d1511"/>
  <rect x="22" y="18" width="436" height="644" rx="18" fill="url(#leather)"/>
  <rect x="22" y="18" width="436" height="644" rx="18" fill="url(#glow)"/>
  <path d="M72 84h336v512H72z" fill="none" stroke="#d6aa58" stroke-width="5"/>
  <path d="M94 108h292v464H94z" fill="none" stroke="#6e4a29" stroke-width="2"/>
  <path d="M134 229c66-34 124 17 200-22 20-10 35-24 48-39" fill="none" stroke="#d8b36a" stroke-width="8" stroke-linecap="round" opacity="0.78"/>
  <path d="M129 427c54-52 112-2 170-50 30-25 41-68 62-91" fill="none" stroke="#c24c35" stroke-width="7" stroke-linecap="round"/>
  <circle cx="300" cy="374" r="16" fill="#e1bd6b" stroke="#4b2418" stroke-width="5"/>
  <path d="M148 505h184" stroke="#d8b36a" stroke-width="5" stroke-linecap="round"/>
  <path d="M174 538h132" stroke="#d8b36a" stroke-width="4" stroke-linecap="round" opacity="0.82"/>
  <path d="M48 54v572" stroke="#120d0a" stroke-width="13" opacity="0.38"/>
</svg>
